<svg xmlns="http://www.w3.org/2000/svg" xmlns:xlink="http://www.w3.org/1999/xlink" width="500" zoomAndPan="magnify" viewBox="0 0 375 374.999991" height="500" preserveAspectRatio="xMidYMid meet" version="1.0"><defs><g/><clipPath id="c0ba145539"><path d="M 131.261719 129.132812 L 243.761719 129.132812 L 243.761719 192.132812 L 131.261719 192.132812 Z M 131.261719 129.132812 " clip-rule="nonzero"/></clipPath></defs><rect x="-37.5" width="450" fill="#ffffff" y="-37.499999" height="449.999989" fill-opacity="1"/><rect x="-37.5" width="450" fill="#ffffff" y="-37.499999" height="449.999989" fill-opacity="1"/><g clip-path="url(#c0ba145539)"><path fill="#187cb1" d="M 187.5625 192.132812 L 163.78125 168.351562 L 203.019531 129.109375 L 243.746094 169.835938 L 227.09375 169.835938 L 203.019531 146.007812 L 180.429688 168.460938 L 187.652344 175.753906 L 195.234375 169.09375 L 191.410156 165.019531 L 199.417969 156.761719 L 211.144531 169.09375 Z M 172.148438 129.109375 L 131.242188 170.015625 L 148.546875 170.015625 L 172.597656 145.960938 L 176.3125 149.675781 L 184.636719 141.347656 Z M 172.148438 129.109375 " fill-opacity="1" fill-rule="nonzero"/></g><g fill="#000000" fill-opacity="1"><g transform="translate(112.403281, 223.688745)"><g><path d="M 18.0625 -17.1875 L 18.0625 0 L 13.203125 0 L 13.203125 -6.703125 L 6.578125 -6.703125 L 6.578125 0 L 1.71875 0 L 1.71875 -17.1875 L 6.578125 -17.1875 L 6.578125 -10.734375 L 13.203125 -10.734375 L 13.203125 -17.1875 Z M 18.0625 -17.1875 "/></g></g></g><g fill="#000000" fill-opacity="1"><g transform="translate(134.63672, 223.688745)"><g><path d="M 15.515625 -3.75 L 15.515625 0 L 1.71875 0 L 1.71875 -17.1875 L 15.1875 -17.1875 L 15.1875 -13.421875 L 6.53125 -13.421875 L 6.53125 -10.53125 L 14.15625 -10.53125 L 14.15625 -6.890625 L 6.53125 -6.890625 L 6.53125 -3.75 Z M 15.515625 -3.75 "/></g></g></g><g fill="#000000" fill-opacity="1"><g transform="translate(153.581928, 223.688745)"><g><path d="M 9.234375 -4.5625 L 6.578125 -4.5625 L 6.578125 0 L 1.71875 0 L 1.71875 -17.1875 L 9.578125 -17.1875 C 11.128906 -17.1875 12.476562 -16.925781 13.625 -16.40625 C 14.769531 -15.894531 15.648438 -15.160156 16.265625 -14.203125 C 16.890625 -13.242188 17.203125 -12.117188 17.203125 -10.828125 C 17.203125 -9.578125 16.910156 -8.488281 16.328125 -7.5625 C 15.753906 -6.644531 14.925781 -5.925781 13.84375 -5.40625 L 17.546875 0 L 12.34375 0 Z M 12.296875 -10.828125 C 12.296875 -11.628906 12.039062 -12.25 11.53125 -12.6875 C 11.03125 -13.132812 10.28125 -13.359375 9.28125 -13.359375 L 6.578125 -13.359375 L 6.578125 -8.328125 L 9.28125 -8.328125 C 10.28125 -8.328125 11.03125 -8.539062 11.53125 -8.96875 C 12.039062 -9.40625 12.296875 -10.023438 12.296875 -10.828125 Z M 12.296875 -10.828125 "/></g></g></g><g fill="#000000" fill-opacity="1"><g transform="translate(174.195788, 223.688745)"><g><path d="M 1.71875 -17.1875 L 6.578125 -17.1875 L 6.578125 0 L 1.71875 0 Z M 1.71875 -17.1875 "/></g></g></g><g fill="#000000" fill-opacity="1"><g transform="translate(184.969513, 223.688745)"><g><path d="M 5.375 -13.328125 L 0.09375 -13.328125 L 0.09375 -17.1875 L 15.484375 -17.1875 L 15.484375 -13.328125 L 10.234375 -13.328125 L 10.234375 0 L 5.375 0 Z M 5.375 -13.328125 "/></g></g></g><g fill="#000000" fill-opacity="1"><g transform="translate(203.006779, 223.688745)"><g><path d="M 13.234375 -3.34375 L 5.96875 -3.34375 L 4.609375 0 L -0.34375 0 L 7.234375 -17.1875 L 12.03125 -17.1875 L 19.640625 0 L 14.578125 0 Z M 11.8125 -6.921875 L 9.59375 -12.421875 L 7.390625 -6.921875 Z M 11.8125 -6.921875 "/></g></g></g><g fill="#000000" fill-opacity="1"><g transform="translate(224.749442, 223.688745)"><g><path d="M 13.234375 -8.953125 L 17.53125 -8.953125 L 17.53125 -1.84375 C 16.539062 -1.132812 15.40625 -0.59375 14.125 -0.21875 C 12.851562 0.15625 11.582031 0.34375 10.3125 0.34375 C 8.507812 0.34375 6.890625 -0.0351562 5.453125 -0.796875 C 4.015625 -1.554688 2.882812 -2.613281 2.0625 -3.96875 C 1.238281 -5.332031 0.828125 -6.875 0.828125 -8.59375 C 0.828125 -10.3125 1.238281 -11.847656 2.0625 -13.203125 C 2.882812 -14.566406 4.019531 -15.628906 5.46875 -16.390625 C 6.925781 -17.148438 8.570312 -17.53125 10.40625 -17.53125 C 12.007812 -17.53125 13.445312 -17.257812 14.71875 -16.71875 C 16 -16.175781 17.066406 -15.398438 17.921875 -14.390625 L 14.828125 -11.59375 C 13.660156 -12.863281 12.269531 -13.5 10.65625 -13.5 C 9.175781 -13.5 7.988281 -13.050781 7.09375 -12.15625 C 6.195312 -11.269531 5.75 -10.082031 5.75 -8.59375 C 5.75 -7.644531 5.953125 -6.796875 6.359375 -6.046875 C 6.765625 -5.304688 7.335938 -4.726562 8.078125 -4.3125 C 8.816406 -3.894531 9.660156 -3.6875 10.609375 -3.6875 C 11.535156 -3.6875 12.410156 -3.875 13.234375 -4.25 Z M 13.234375 -8.953125 "/></g></g></g><g fill="#000000" fill-opacity="1"><g transform="translate(246.099481, 223.688745)"><g><path d="M 15.515625 -3.75 L 15.515625 0 L 1.71875 0 L 1.71875 -17.1875 L 15.1875 -17.1875 L 15.1875 -13.421875 L 6.53125 -13.421875 L 6.53125 -10.53125 L 14.15625 -10.53125 L 14.15625 -6.890625 L 6.53125 -6.890625 L 6.53125 -3.75 Z M 15.515625 -3.75 "/></g></g></g><g fill="#000000" fill-opacity="1"><g transform="translate(137.945302, 240.596864)"><g><path d="M 0.921875 0 L 2.671875 0 L 2.671875 -2.398438 L 3.828125 -2.398438 L 5.199219 0 L 7.222656 0 L 5.628906 -2.671875 C 6.554688 -3.078125 7.089844 -3.914062 7.089844 -5.046875 C 7.089844 -6.683594 5.96875 -7.695312 4.210938 -7.695312 L 0.921875 -7.695312 Z M 2.648438 -3.871094 L 2.648438 -6.203125 L 3.980469 -6.203125 C 4.835938 -6.203125 5.320312 -5.785156 5.320312 -5.035156 C 5.320312 -4.289062 4.835938 -3.871094 3.980469 -3.871094 Z M 2.648438 -3.871094 "/></g></g></g><g fill="#000000" fill-opacity="1"><g transform="translate(148.433818, 240.596864)"><g><path d="M 0.921875 0 L 6.101562 0 L 6.101562 -1.484375 L 2.660156 -1.484375 L 2.660156 -3.167969 L 5.683594 -3.167969 L 5.683594 -4.628906 L 2.660156 -4.628906 L 2.660156 -6.222656 L 5.980469 -6.222656 L 5.980469 -7.695312 L 0.921875 -7.695312 Z M 0.921875 0 "/></g></g></g><g fill="#000000" fill-opacity="1"><g transform="translate(157.84509, 240.596864)"><g><path d="M 3.054688 0 L 4.773438 0 L 7.730469 -7.695312 L 5.859375 -7.695312 L 3.925781 -2.519531 L 3 -4.957031 L 1.980469 -7.695312 L 0.0976562 -7.695312 Z M 3.054688 0 "/></g></g></g><g fill="#000000" fill-opacity="1"><g transform="translate(168.421543, 240.596864)"><g><path d="M 4.574219 0.152344 C 6.980469 0.152344 8.6875 -1.496094 8.6875 -3.847656 C 8.6875 -6.203125 6.980469 -7.851562 4.574219 -7.851562 C 2.164062 -7.851562 0.472656 -6.203125 0.472656 -3.847656 C 0.472656 -1.496094 2.164062 0.152344 4.574219 0.152344 Z M 2.253906 -3.847656 C 2.253906 -5.234375 3.210938 -6.191406 4.574219 -6.191406 C 5.949219 -6.191406 6.894531 -5.234375 6.894531 -3.847656 C 6.894531 -2.460938 5.949219 -1.507812 4.574219 -1.507812 C 3.210938 -1.507812 2.253906 -2.460938 2.253906 -3.847656 Z M 2.253906 -3.847656 "/></g></g></g><g fill="#000000" fill-opacity="1"><g transform="translate(180.328061, 240.596864)"><g><path d="M 0.921875 0 L 6.035156 0 L 6.035156 -1.636719 L 2.671875 -1.636719 L 2.671875 -7.695312 L 0.921875 -7.695312 Z M 0.921875 0 "/></g></g></g><g fill="#000000" fill-opacity="1"><g transform="translate(189.409574, 240.596864)"><g><path d="M 4.066406 0.152344 C 6.070312 0.152344 7.289062 -1.097656 7.289062 -3.167969 L 7.289062 -7.695312 L 5.542969 -7.695312 L 5.542969 -3.289062 C 5.542969 -2.109375 5.046875 -1.507812 4.066406 -1.507812 C 3.089844 -1.507812 2.59375 -2.109375 2.59375 -3.289062 L 2.59375 -7.695312 L 0.847656 -7.695312 L 0.847656 -3.167969 C 0.847656 -1.097656 2.066406 0.152344 4.066406 0.152344 Z M 4.066406 0.152344 "/></g></g></g><g fill="#000000" fill-opacity="1"><g transform="translate(200.293814, 240.596864)"><g><path d="M 2.769531 0 L 4.519531 0 L 4.519531 -6.058594 L 6.960938 -6.058594 L 6.960938 -7.695312 L 0.328125 -7.695312 L 0.328125 -6.058594 L 2.769531 -6.058594 Z M 2.769531 0 "/></g></g></g><g fill="#000000" fill-opacity="1"><g transform="translate(210.33165, 240.596864)"><g><path d="M 0.921875 0 L 2.671875 0 L 2.671875 -7.695312 L 0.921875 -7.695312 Z M 0.921875 0 "/></g></g></g><g fill="#000000" fill-opacity="1"><g transform="translate(216.676099, 240.596864)"><g><path d="M 4.574219 0.152344 C 6.980469 0.152344 8.6875 -1.496094 8.6875 -3.847656 C 8.6875 -6.203125 6.980469 -7.851562 4.574219 -7.851562 C 2.164062 -7.851562 0.472656 -6.203125 0.472656 -3.847656 C 0.472656 -1.496094 2.164062 0.152344 4.574219 0.152344 Z M 2.253906 -3.847656 C 2.253906 -5.234375 3.210938 -6.191406 4.574219 -6.191406 C 5.949219 -6.191406 6.894531 -5.234375 6.894531 -3.847656 C 6.894531 -2.460938 5.949219 -1.507812 4.574219 -1.507812 C 3.210938 -1.507812 2.253906 -2.460938 2.253906 -3.847656 Z M 2.253906 -3.847656 "/></g></g></g><g fill="#000000" fill-opacity="1"><g transform="translate(228.582617, 240.596864)"><g><path d="M 0.921875 0 L 2.660156 0 L 2.660156 -4.71875 L 6.058594 0 L 7.542969 0 L 7.542969 -7.695312 L 5.804688 -7.695312 L 5.804688 -3.011719 L 2.40625 -7.695312 L 0.921875 -7.695312 Z M 0.921875 0 "/></g></g></g></svg>